<?xml version="1.0" encoding="UTF-8"?>
<svg xmlns="http://www.w3.org/2000/svg" xmlns:xlink="http://www.w3.org/1999/xlink" width="100pt" height="25pt" viewBox="0 0 100 25" version="1.1">
<g id="surface1">
<path style=" stroke:none;fill-rule:nonzero;fill:rgb(15.294118%,20.392157%,65.490196%);fill-opacity:0.835294;" d="M 17.847656 5.644531 C 17.042969 7.625 16.578125 8.992188 15 14.066406 C 14.332031 16.199219 13.699219 18.03125 13.664062 17.925781 C 13.648438 17.878906 13.761719 16.855469 13.917969 15.664062 C 14.070312 14.464844 14.324219 12.277344 14.476562 10.796875 C 14.753906 8.105469 14.949219 6.378906 15.039062 5.808594 C 15.078125 5.546875 15.0625 5.515625 14.917969 5.515625 C 14.777344 5.515625 14.753906 5.476562 14.769531 5.289062 C 14.792969 5.042969 15.03125 5.058594 12.785156 5.15625 L 11.414062 5.21875 L 10.398438 6.867188 C 8.453125 10.023438 7.097656 12.445312 4.371094 17.695312 C 3.285156 19.789062 3.085938 20.300781 3.371094 20.300781 C 3.472656 20.300781 3.480469 20.332031 3.410156 20.46875 C 3.355469 20.554688 3.339844 20.660156 3.371094 20.683594 C 3.402344 20.714844 4.265625 20.738281 5.296875 20.738281 L 7.171875 20.738281 L 7.472656 20.339844 C 7.636719 20.125 8.097656 19.339844 8.503906 18.605469 C 9.542969 16.710938 9.628906 16.75 9.429688 19.09375 C 9.34375 20.035156 9.351562 20.171875 9.453125 20.253906 C 9.527344 20.300781 9.589844 20.414062 9.605469 20.5 C 9.667969 20.8125 10.328125 20.867188 13.402344 20.8125 C 15.988281 20.773438 16.632812 20.722656 16.855469 20.5625 C 16.902344 20.523438 17.242188 19.574219 17.609375 18.445312 C 18.242188 16.488281 18.496094 15.847656 18.195312 16.953125 C 18.117188 17.246094 18.050781 17.765625 18.050781 18.183594 C 18.042969 19.070312 18.21875 19.484375 18.875 20.15625 C 19.265625 20.539062 19.417969 20.636719 19.914062 20.789062 C 20.4375 20.957031 20.667969 20.972656 22.089844 20.972656 C 23.929688 20.980469 24.59375 20.867188 25.347656 20.414062 C 26.023438 20.011719 26.417969 19.542969 26.941406 18.503906 L 27.410156 17.582031 L 27.410156 18.277344 C 27.402344 19.101562 27.539062 19.453125 28.125 20.125 C 28.578125 20.644531 28.808594 20.765625 29.578125 20.90625 C 30.402344 21.050781 32.652344 21.050781 33.429688 20.898438 C 34.714844 20.652344 35.515625 20.054688 36.113281 18.878906 C 36.539062 18.039062 37.121094 16.6875 37.121094 16.527344 C 37.121094 16.464844 37.046875 16.328125 36.960938 16.222656 C 36.875 16.121094 36.800781 15.992188 36.800781 15.9375 C 36.800781 15.785156 36.292969 15.738281 34.84375 15.769531 L 33.550781 15.785156 L 33.21875 16.304688 C 32.835938 16.886719 32.503906 17.105469 32.003906 17.105469 C 31.433594 17.105469 31.417969 17.046875 31.75 16.207031 C 31.910156 15.800781 32.113281 15.257812 32.195312 15 C 32.28125 14.746094 32.457031 14.355469 32.574219 14.128906 C 32.914062 13.492188 33.714844 13.066406 34.011719 13.363281 C 34.066406 13.417969 34.105469 13.609375 34.105469 13.804688 C 34.105469 14.003906 34.144531 14.164062 34.214844 14.203125 C 34.28125 14.234375 34.335938 14.339844 34.351562 14.425781 C 34.382812 14.5625 34.484375 14.601562 35.097656 14.683594 C 35.914062 14.785156 36.808594 14.808594 37.421875 14.738281 L 37.832031 14.683594 L 38.101562 13.828125 C 38.492188 12.597656 38.648438 11.804688 38.609375 11.308594 C 38.578125 10.957031 38.5 10.773438 38.183594 10.300781 C 37.507812 9.285156 36.792969 9.070312 34.34375 9.136719 C 31.375 9.214844 30.542969 9.621094 29.449219 11.539062 L 29.265625 11.867188 L 29.265625 11.492188 C 29.265625 11.109375 29.070312 10.46875 28.949219 10.46875 C 28.910156 10.46875 28.792969 10.308594 28.679688 10.109375 C 28.433594 9.695312 27.964844 9.390625 27.308594 9.214844 C 26.941406 9.121094 26.476562 9.101562 25.023438 9.136719 C 23.429688 9.160156 23.121094 9.191406 22.605469 9.34375 C 21.46875 9.6875 20.914062 10.125 20.265625 11.214844 C 20.089844 11.5 19.941406 11.726562 19.925781 11.714844 C 19.914062 11.699219 20.175781 10.925781 20.511719 9.980469 C 20.84375 9.039062 21.335938 7.625 21.613281 6.832031 C 21.890625 6.042969 22.136719 5.332031 22.167969 5.25 C 22.214844 5.148438 22.183594 5.113281 22.019531 5.113281 C 21.835938 5.113281 21.8125 5.089844 21.859375 4.929688 C 21.898438 4.746094 21.882812 4.738281 21.289062 4.691406 C 20.953125 4.660156 20.128906 4.636719 19.472656 4.636719 L 18.257812 4.636719 Z M 20.980469 5.492188 C 20.882812 5.792969 20.21875 7.6875 19.511719 9.710938 C 17.878906 14.386719 16.640625 18.015625 16.316406 19.078125 C 16.15625 19.605469 16.011719 19.941406 15.925781 19.988281 C 15.847656 20.027344 15.292969 20.054688 14.679688 20.042969 L 13.578125 20.019531 L 13.925781 19.140625 C 14.425781 17.902344 15.1875 15.648438 15.894531 13.308594 C 17.011719 9.648438 17.71875 7.570312 18.457031 5.808594 L 18.8125 4.957031 L 21.167969 4.957031 Z M 13.675781 9.191406 C 13.230469 13.1875 12.382812 19.996094 12.316406 20.0625 C 12.183594 20.195312 10.167969 20.109375 10.015625 19.949219 C 10 19.933594 10.042969 19.347656 10.113281 18.652344 C 10.175781 17.949219 10.230469 17.191406 10.230469 16.960938 L 10.230469 16.542969 L 8.445312 16.542969 L 8.296875 16.808594 C 8.210938 16.945312 7.867188 17.566406 7.535156 18.183594 C 7.210938 18.796875 6.820312 19.476562 6.679688 19.683594 L 6.417969 20.0625 L 5.15625 20.0625 C 4.457031 20.0625 3.886719 20.035156 3.886719 20.011719 C 3.886719 19.949219 5.503906 16.855469 6.84375 14.347656 C 8.613281 11.039062 9.527344 9.4375 11.160156 6.769531 L 11.984375 5.433594 L 14.085938 5.433594 Z M 27.070312 9.589844 C 27.578125 9.78125 28.023438 10.132812 28.203125 10.476562 C 28.546875 11.148438 28.0625 13.097656 26.730469 16.433594 C 26.054688 18.09375 25.617188 18.933594 25.261719 19.246094 C 24.292969 20.085938 23.328125 20.324219 21.289062 20.230469 C 20.34375 20.179688 20.121094 20.140625 19.742188 19.964844 C 18.851562 19.558594 18.582031 18.773438 18.820312 17.335938 C 18.941406 16.609375 19.964844 13.371094 20.359375 12.476562 C 20.660156 11.773438 21.320312 10.660156 21.597656 10.390625 C 21.929688 10.054688 22.652344 9.71875 23.398438 9.558594 C 24.175781 9.398438 24.269531 9.390625 25.539062 9.398438 C 26.4375 9.414062 26.6875 9.445312 27.070312 9.589844 Z M 36.40625 9.621094 C 36.9375 9.824219 37.308594 10.109375 37.515625 10.476562 C 37.675781 10.765625 37.691406 10.886719 37.652344 11.382812 C 37.601562 11.949219 37.101562 13.769531 36.9375 13.980469 C 36.867188 14.066406 36.667969 14.074219 36.007812 14.042969 C 34.859375 13.96875 34.820312 13.953125 34.820312 13.570312 C 34.820312 13.164062 34.628906 12.765625 34.367188 12.621094 C 34.230469 12.546875 33.929688 12.507812 33.519531 12.515625 C 32.195312 12.53125 31.703125 13.105469 30.851562 15.640625 C 30.449219 16.839844 30.464844 17.023438 30.933594 17.269531 C 31.257812 17.445312 32.398438 17.480469 32.84375 17.335938 C 33.167969 17.222656 33.566406 16.855469 33.851562 16.410156 L 34.066406 16.066406 L 35.121094 16.066406 C 35.867188 16.066406 36.167969 16.089844 36.167969 16.160156 C 36.167969 16.3125 35.222656 18.421875 34.976562 18.804688 C 34.683594 19.269531 34.066406 19.765625 33.519531 19.972656 C 32.765625 20.253906 32.097656 20.324219 30.789062 20.277344 C 29.703125 20.230469 29.519531 20.195312 29.101562 20.011719 C 28.25 19.628906 28.03125 19.148438 28.109375 17.941406 C 28.15625 17.175781 28.371094 16.296875 28.773438 15.183594 C 28.910156 14.808594 29.132812 14.128906 29.265625 13.667969 C 29.578125 12.597656 30.203125 11.308594 30.671875 10.789062 C 31.289062 10.09375 32.042969 9.679688 32.9375 9.511719 C 33.644531 9.390625 35.992188 9.464844 36.40625 9.621094 Z M 36.40625 9.621094 "/>
<path style=" stroke:none;fill-rule:nonzero;fill:rgb(15.294118%,20.392157%,65.490196%);fill-opacity:0.835294;" d="M 11.136719 10.03125 C 10.921875 10.414062 9.199219 14.011719 9.199219 14.097656 C 9.199219 14.121094 9.644531 14.144531 10.183594 14.144531 L 11.167969 14.144531 L 11.214844 13.921875 C 11.613281 12.09375 11.898438 10.492188 11.898438 10.125 L 11.898438 9.671875 L 11.621094 9.671875 C 11.382812 9.671875 11.324219 9.710938 11.136719 10.03125 Z M 11.136719 10.03125 "/>
<path style=" stroke:none;fill-rule:nonzero;fill:rgb(15.294118%,20.392157%,65.490196%);fill-opacity:0.835294;" d="M 23.375 12.578125 C 22.613281 12.859375 22.367188 13.226562 21.683594 15.128906 C 21.191406 16.496094 21.160156 16.824219 21.460938 17.113281 C 21.644531 17.28125 21.75 17.304688 22.40625 17.328125 C 23.96875 17.390625 24.53125 16.894531 25.222656 14.875 C 25.648438 13.59375 25.601562 12.84375 25.0625 12.570312 C 24.800781 12.4375 23.753906 12.445312 23.375 12.578125 Z M 24.675781 13.265625 C 24.984375 13.441406 24.816406 14.304688 24.183594 15.746094 C 23.824219 16.558594 23.691406 16.742188 23.320312 16.894531 C 22.898438 17.0625 22.296875 17.0625 22.230469 16.894531 C 22.175781 16.75 22.9375 14.5625 23.230469 14.011719 C 23.390625 13.722656 23.53125 13.578125 23.867188 13.410156 C 24.324219 13.164062 24.445312 13.148438 24.675781 13.265625 Z M 24.675781 13.265625 "/>
<path style=" stroke:none;fill-rule:nonzero;fill:rgb(15.294118%,20.392157%,65.490196%);fill-opacity:0.835294;" d="M 75.039062 6.320312 C 74.761719 7.21875 74.515625 8 74.5 8.046875 C 74.476562 8.121094 74.53125 8.152344 74.667969 8.152344 C 74.847656 8.152344 74.875 8.175781 74.824219 8.34375 L 74.777344 8.527344 L 76.199219 8.589844 C 77.6875 8.648438 78.242188 8.582031 78.464844 8.320312 C 78.5625 8.214844 79.472656 5.433594 79.472656 5.25 C 79.472656 5.21875 79.402344 5.195312 79.308594 5.195312 C 79.164062 5.195312 79.148438 5.164062 79.1875 4.996094 L 79.234375 4.796875 L 77.792969 4.796875 C 76.992188 4.796875 76.15625 4.769531 75.9375 4.746094 L 75.539062 4.699219 Z M 78.417969 5.148438 C 78.425781 5.15625 78.347656 5.449219 78.234375 5.792969 C 78.132812 6.144531 77.949219 6.730469 77.839844 7.089844 C 77.65625 7.703125 77.625 7.746094 77.363281 7.832031 C 76.960938 7.96875 75.238281 7.863281 75.300781 7.710938 C 75.324219 7.648438 75.378906 7.449219 75.429688 7.257812 C 75.546875 6.816406 76.070312 5.179688 76.117188 5.089844 C 76.148438 5.035156 78.347656 5.097656 78.417969 5.148438 Z M 78.417969 5.148438 "/>
<path style=" stroke:none;fill-rule:nonzero;fill:rgb(15.294118%,20.392157%,65.490196%);fill-opacity:0.835294;" d="M 55.863281 5.066406 C 55.109375 5.164062 54.480469 5.257812 54.464844 5.273438 C 54.449219 5.300781 54.226562 6.019531 53.980469 6.875 C 53.726562 7.730469 52.617188 11.171875 51.507812 14.523438 C 50.398438 17.871094 49.492188 20.652344 49.492188 20.699219 C 49.492188 20.859375 53.464844 20.765625 53.980469 20.597656 L 54.386719 20.460938 L 54.886719 18.703125 C 55.164062 17.734375 55.417969 16.945312 55.449219 16.945312 C 55.480469 16.945312 55.527344 17.007812 55.550781 17.078125 C 55.617188 17.28125 55.894531 19.109375 55.964844 19.742188 C 55.988281 20.019531 56.058594 20.292969 56.113281 20.339844 C 56.179688 20.378906 56.234375 20.492188 56.25 20.582031 C 56.273438 20.730469 56.335938 20.738281 58.445312 20.722656 C 59.636719 20.714844 60.621094 20.699219 60.636719 20.683594 C 60.644531 20.667969 60.628906 20.285156 60.589844 19.835938 C 60.5 18.847656 60.34375 18.175781 59.730469 16.265625 C 59.066406 14.195312 59.074219 14.363281 59.621094 14.242188 C 61.167969 13.914062 62.90625 12.363281 63.691406 10.597656 C 64.117188 9.648438 64.1875 8.75 63.9375 7.738281 C 63.507812 6.066406 62.714844 5.324219 61.007812 4.988281 C 60.105469 4.8125 57.542969 4.851562 55.863281 5.066406 Z M 60.066406 5.195312 C 60.53125 5.242188 61.113281 5.355469 61.351562 5.441406 C 61.945312 5.667969 62.515625 6.210938 62.832031 6.847656 C 63.054688 7.296875 63.09375 7.480469 63.117188 8.105469 C 63.160156 9 63.007812 9.640625 62.570312 10.453125 C 61.683594 12.125 60.214844 13.308594 58.667969 13.59375 L 58.128906 13.699219 L 58.183594 13.9375 C 58.210938 14.074219 58.445312 14.867188 58.707031 15.703125 C 59.351562 17.773438 59.566406 18.628906 59.621094 19.347656 L 59.667969 19.957031 L 59.167969 20.003906 C 58.890625 20.035156 58.234375 20.0625 57.695312 20.0625 C 56.742188 20.0625 56.710938 20.054688 56.679688 19.886719 C 56.664062 19.78125 56.582031 19.222656 56.511719 18.636719 C 56.34375 17.320312 56.082031 16.128906 55.78125 15.34375 C 55.589844 14.832031 55.527344 14.746094 55.347656 14.722656 C 55.164062 14.699219 55.125 14.746094 54.902344 15.28125 C 54.609375 15.992188 53.941406 18.09375 53.6875 19.085938 C 53.511719 19.757812 53.480469 19.828125 53.261719 19.910156 C 52.949219 20.027344 50.363281 20.109375 50.363281 19.996094 C 50.363281 19.957031 50.492188 19.566406 50.648438 19.132812 C 51.722656 16.152344 54.503906 7.671875 54.886719 6.21875 C 55.09375 5.417969 54.925781 5.507812 56.511719 5.324219 C 58.367188 5.097656 58.859375 5.082031 60.066406 5.195312 Z M 60.066406 5.195312 "/>
<path style=" stroke:none;fill-rule:nonzero;fill:rgb(15.294118%,20.392157%,65.490196%);fill-opacity:0.835294;" d="M 57.820312 8.039062 C 57.710938 8.054688 57.40625 8.128906 57.144531 8.199219 L 56.671875 8.320312 L 56.402344 9.175781 C 56.257812 9.648438 56.074219 10.253906 55.996094 10.519531 L 55.851562 11.011719 L 56.621094 11.0625 C 58.144531 11.164062 59.082031 10.902344 59.492188 10.238281 C 60.035156 9.382812 59.992188 8.550781 59.390625 8.191406 C 59.144531 8.046875 58.273438 7.960938 57.820312 8.039062 Z M 58.890625 8.824219 C 59.144531 8.933594 59.167969 8.976562 59.167969 9.269531 C 59.167969 9.789062 58.820312 10.359375 58.34375 10.605469 C 58.226562 10.667969 57.859375 10.742188 57.535156 10.765625 L 56.957031 10.8125 L 57.257812 9.910156 C 57.582031 8.933594 57.582031 8.933594 58.257812 8.792969 C 58.429688 8.757812 58.582031 8.726562 58.597656 8.71875 C 58.605469 8.710938 58.742188 8.769531 58.890625 8.824219 Z M 58.890625 8.824219 "/>
<path style=" stroke:none;fill-rule:nonzero;fill:rgb(15.294118%,20.392157%,65.490196%);fill-opacity:0.835294;" d="M 81.433594 9.039062 C 80.027344 9.160156 79.085938 9.621094 78.109375 10.652344 C 77.808594 10.964844 77.570312 11.195312 77.570312 11.171875 C 77.570312 11.148438 77.65625 10.886719 77.769531 10.597656 C 78.015625 9.949219 78.015625 9.832031 77.800781 9.832031 C 77.664062 9.832031 77.640625 9.796875 77.679688 9.640625 C 77.710938 9.511719 77.6875 9.429688 77.609375 9.40625 C 77.546875 9.375 76.769531 9.335938 75.886719 9.304688 C 74.585938 9.261719 74.253906 9.277344 74.152344 9.359375 C 73.898438 9.582031 73.105469 11.734375 72.027344 15.105469 C 71.382812 17.136719 70.667969 19.171875 70.234375 20.238281 C 70.195312 20.347656 70.21875 20.378906 70.328125 20.378906 C 70.550781 20.378906 70.597656 20.460938 70.503906 20.636719 C 70.457031 20.722656 70.429688 20.804688 70.449219 20.8125 C 70.464844 20.828125 71.257812 20.8125 72.214844 20.78125 C 73.359375 20.75 74.03125 20.691406 74.167969 20.628906 C 74.339844 20.539062 74.421875 20.371094 74.683594 19.492188 C 74.847656 18.925781 75.015625 18.460938 75.039062 18.460938 C 75.070312 18.460938 75.109375 18.605469 75.144531 18.789062 C 75.308594 19.859375 76.292969 20.691406 77.738281 20.988281 C 78.53125 21.148438 80.3125 21.109375 81.140625 20.898438 C 82.949219 20.460938 84.199219 19.492188 84.867188 18.03125 L 85.082031 17.558594 L 85.121094 18.269531 C 85.167969 19.039062 85.277344 19.390625 85.691406 20.011719 C 86.261719 20.875 86.476562 20.949219 88.5625 21.003906 C 90.378906 21.042969 91.273438 20.957031 91.894531 20.667969 C 92.894531 20.203125 93.726562 19.0625 94.457031 17.144531 C 94.75 16.390625 94.757812 16.304688 94.535156 16.304688 C 94.398438 16.304688 94.375 16.273438 94.417969 16.113281 C 94.457031 15.953125 94.425781 15.921875 94.21875 15.871094 C 94.082031 15.847656 93.296875 15.824219 92.480469 15.824219 L 90.988281 15.824219 L 90.847656 16.214844 C 90.554688 17.046875 89.792969 17.75 89.355469 17.589844 C 89.109375 17.496094 89.085938 16.847656 89.308594 16.136719 L 89.476562 15.585938 L 90.238281 15.585938 C 91.1875 15.585938 94.242188 15.433594 94.75 15.359375 L 95.121094 15.304688 L 95.351562 14.746094 C 95.75 13.777344 95.914062 12.929688 95.875 12.027344 C 95.851562 11.4375 95.796875 11.132812 95.675781 10.855469 C 95.304688 10.015625 94.636719 9.445312 93.789062 9.238281 C 92.257812 8.863281 90.332031 9.09375 88.976562 9.804688 C 88.355469 10.125 87.53125 10.863281 87.246094 11.339844 C 87.136719 11.515625 87.023438 11.667969 87 11.667969 C 86.976562 11.667969 86.929688 11.484375 86.90625 11.269531 C 86.851562 10.796875 86.546875 10.199219 86.113281 9.703125 C 85.738281 9.277344 85.335938 9.144531 84.144531 9.03125 C 83.199219 8.945312 82.433594 8.945312 81.433594 9.039062 Z M 84.621094 9.4375 C 85.042969 9.519531 85.175781 9.582031 85.460938 9.863281 C 85.691406 10.085938 85.835938 10.308594 85.898438 10.550781 C 86.015625 10.972656 85.960938 12.035156 85.800781 12.507812 L 85.699219 12.828125 L 85.007812 12.898438 C 84.628906 12.929688 84.082031 12.941406 83.796875 12.90625 L 83.28125 12.851562 L 83.28125 12.515625 C 83.28125 11.882812 82.8125 11.507812 82.042969 11.507812 C 81.457031 11.507812 80.980469 11.734375 80.671875 12.15625 C 80.378906 12.5625 80.296875 12.949219 80.457031 13.25 C 80.648438 13.617188 80.765625 13.675781 81.835938 13.914062 C 82.449219 14.050781 83.042969 14.242188 83.359375 14.402344 C 84.328125 14.898438 84.574219 15.722656 84.128906 17.007812 C 83.566406 18.644531 82.574219 19.566406 80.78125 20.109375 C 80.179688 20.292969 79.910156 20.324219 79.039062 20.332031 C 77.871094 20.339844 77.417969 20.238281 76.699219 19.804688 C 75.894531 19.316406 75.578125 18.445312 75.824219 17.367188 C 75.960938 16.75 76.125 16.710938 77.878906 16.839844 C 78.457031 16.878906 78.601562 16.910156 78.570312 17 C 78.496094 17.183594 78.71875 17.613281 78.964844 17.78125 C 79.132812 17.886719 79.386719 17.941406 79.847656 17.964844 C 80.402344 18 80.542969 17.976562 80.863281 17.824219 C 81.433594 17.542969 81.835938 16.695312 81.648438 16.183594 C 81.566406 15.984375 81.097656 15.785156 80.085938 15.511719 C 78.125 15 77.492188 14.371094 77.585938 13.027344 C 77.664062 11.972656 78.402344 10.804688 79.433594 10.132812 C 79.933594 9.804688 80.878906 9.480469 81.65625 9.351562 C 82.234375 9.261719 83.929688 9.3125 84.621094 9.4375 Z M 92.957031 9.4375 C 93.917969 9.589844 94.558594 10 94.84375 10.628906 C 95.019531 11.019531 95.019531 12.347656 94.835938 13.027344 C 94.613281 13.875 94.304688 14.617188 94.164062 14.65625 C 93.851562 14.753906 91.15625 14.875 89.949219 14.851562 L 88.648438 14.824219 L 88.5 15.257812 C 88.117188 16.390625 88.125 17.28125 88.515625 17.679688 C 88.730469 17.894531 88.777344 17.902344 89.441406 17.902344 C 90.085938 17.902344 90.179688 17.878906 90.523438 17.664062 C 90.941406 17.398438 91.332031 16.894531 91.464844 16.449219 L 91.554688 16.144531 L 92.617188 16.144531 C 93.25 16.144531 93.671875 16.175781 93.671875 16.222656 C 93.671875 16.351562 92.765625 18.40625 92.535156 18.796875 C 92.265625 19.261719 91.585938 19.789062 90.910156 20.042969 C 90.433594 20.230469 90.238281 20.253906 88.925781 20.285156 C 87.714844 20.308594 87.414062 20.292969 87.0625 20.179688 C 86.121094 19.875 85.8125 19.367188 85.753906 18.070312 C 85.699219 16.742188 86.015625 15.371094 86.808594 13.460938 C 87.707031 11.300781 88.617188 10.316406 90.226562 9.742188 C 91.25 9.382812 92.0625 9.296875 92.957031 9.4375 Z M 77.015625 9.628906 C 77.015625 9.648438 76.960938 9.804688 76.894531 9.964844 C 76.175781 11.851562 74.285156 17.28125 73.84375 18.742188 C 73.660156 19.355469 73.445312 19.910156 73.382812 19.964844 C 73.292969 20.027344 72.914062 20.0625 72.121094 20.0625 L 70.988281 20.0625 L 71.160156 19.636719 C 71.257812 19.414062 71.945312 17.367188 72.699219 15.105469 C 73.453125 12.84375 74.199219 10.679688 74.359375 10.285156 L 74.652344 9.589844 L 75.832031 9.589844 C 76.484375 9.589844 77.015625 9.605469 77.015625 9.628906 Z M 82.441406 12.460938 C 82.542969 12.570312 82.550781 12.652344 82.488281 12.820312 C 82.414062 13.003906 82.433594 13.042969 82.597656 13.105469 C 82.742188 13.15625 82.78125 13.21875 82.75 13.339844 C 82.71875 13.476562 82.765625 13.507812 83.097656 13.5625 C 83.304688 13.59375 84.058594 13.625 84.773438 13.625 C 85.476562 13.617188 86.054688 13.625 86.054688 13.644531 C 86.054688 13.652344 85.984375 13.851562 85.890625 14.082031 C 85.800781 14.3125 85.644531 14.785156 85.550781 15.136719 L 85.359375 15.777344 L 85.183594 15.359375 C 84.84375 14.5625 84.003906 14.050781 82.351562 13.644531 L 81.375 13.394531 L 81.375 13.148438 C 81.375 12.898438 81.613281 12.605469 81.972656 12.402344 C 82.195312 12.277344 82.289062 12.285156 82.441406 12.460938 Z M 76.925781 13.835938 C 76.941406 14.164062 77.386719 14.992188 77.703125 15.273438 C 78.125 15.640625 78.839844 15.953125 79.8125 16.191406 C 80.8125 16.441406 81.027344 16.574219 80.949219 16.902344 C 80.828125 17.390625 80.226562 17.757812 79.796875 17.613281 C 79.632812 17.550781 79.585938 17.480469 79.570312 17.238281 C 79.550781 17.015625 79.503906 16.945312 79.402344 16.945312 C 79.289062 16.945312 79.265625 16.894531 79.300781 16.742188 L 79.332031 16.542969 L 78.355469 16.519531 C 77.816406 16.511719 76.984375 16.511719 76.507812 16.527344 C 75.816406 16.550781 75.648438 16.535156 75.683594 16.449219 C 76.738281 13.402344 76.894531 13.066406 76.925781 13.835938 Z M 76.925781 13.835938 "/>
<path style=" stroke:none;fill-rule:nonzero;fill:rgb(15.294118%,20.392157%,65.490196%);fill-opacity:0.835294;" d="M 90.671875 11.5 C 90.179688 11.667969 89.722656 12.085938 89.484375 12.570312 C 89.140625 13.273438 89.023438 13.226562 91.117188 13.25 L 92.957031 13.265625 L 93.035156 13.066406 C 93.171875 12.714844 93.132812 12.132812 92.957031 11.84375 C 92.871094 11.699219 92.671875 11.523438 92.519531 11.460938 C 92.140625 11.300781 91.1875 11.324219 90.671875 11.5 Z M 92.324219 12.226562 C 92.480469 12.386719 92.519531 12.589844 92.433594 12.820312 C 92.394531 12.921875 92.226562 12.949219 91.425781 12.949219 L 90.457031 12.949219 L 90.785156 12.621094 C 91.300781 12.109375 92.019531 11.925781 92.324219 12.226562 Z M 92.324219 12.226562 "/>
<path style=" stroke:none;fill-rule:nonzero;fill:rgb(15.294118%,20.392157%,65.490196%);fill-opacity:0.835294;" d="M 69.375 9.414062 C 69.25 9.550781 69.195312 9.558594 68.902344 9.496094 C 68.335938 9.359375 66.988281 9.472656 66.265625 9.703125 C 63.394531 10.628906 61.269531 14.195312 61.40625 17.886719 C 61.445312 19.003906 61.585938 19.523438 62.015625 20.125 C 62.382812 20.621094 62.792969 20.78125 63.753906 20.78125 C 64.410156 20.78125 64.671875 20.738281 65.210938 20.5625 C 65.578125 20.445312 65.902344 20.347656 65.933594 20.339844 C 65.964844 20.339844 66.039062 20.429688 66.09375 20.539062 L 66.195312 20.738281 L 67.871094 20.765625 C 69.359375 20.78125 69.558594 20.765625 69.710938 20.644531 C 69.925781 20.460938 70.644531 18.527344 71.84375 14.898438 C 72.367188 13.316406 72.945312 11.605469 73.121094 11.085938 C 73.382812 10.34375 73.429688 10.117188 73.367188 9.992188 C 73.320312 9.902344 73.246094 9.832031 73.214844 9.832031 C 73.175781 9.832031 73.121094 9.742188 73.097656 9.640625 C 73.039062 9.40625 72.875 9.382812 70.789062 9.304688 C 69.589844 9.261719 69.511719 9.261719 69.375 9.414062 Z M 72.429688 9.742188 C 72.460938 9.765625 72.359375 10.148438 72.207031 10.589844 C 72.050781 11.03125 71.46875 12.773438 70.914062 14.464844 C 69.914062 17.488281 69.1875 19.523438 68.957031 19.886719 C 68.84375 20.0625 68.804688 20.0625 67.695312 20.035156 C 67.070312 20.027344 66.527344 19.996094 66.503906 19.964844 C 66.472656 19.933594 66.546875 19.710938 66.65625 19.453125 C 66.765625 19.207031 66.863281 18.972656 66.863281 18.933594 C 66.863281 18.765625 66.441406 18.886719 65.972656 19.171875 C 65.269531 19.621094 64.292969 19.996094 63.722656 20.042969 C 62.871094 20.109375 62.398438 19.71875 62.144531 18.742188 C 61.816406 17.480469 62.175781 15.257812 62.96875 13.601562 C 63.777344 11.933594 64.910156 10.742188 66.355469 10.054688 C 66.855469 9.816406 66.972656 9.789062 67.671875 9.789062 C 68.550781 9.789062 68.8125 9.917969 68.972656 10.398438 C 69.042969 10.613281 69.105469 10.667969 69.273438 10.667969 C 69.464844 10.667969 69.511719 10.605469 69.679688 10.199219 C 69.78125 9.933594 69.914062 9.695312 69.972656 9.65625 C 70.082031 9.582031 72.34375 9.664062 72.429688 9.742188 Z M 72.429688 9.742188 "/>
<path style=" stroke:none;fill-rule:nonzero;fill:rgb(15.294118%,20.392157%,65.490196%);fill-opacity:0.835294;" d="M 66.570312 12.578125 C 65.832031 12.820312 65.210938 13.394531 64.816406 14.242188 C 64.539062 14.824219 64.324219 15.570312 64.324219 15.960938 C 64.324219 16.359375 64.554688 16.847656 64.832031 17.046875 C 65.046875 17.199219 65.179688 17.222656 65.832031 17.222656 C 67.164062 17.222656 67.402344 16.984375 68.140625 14.90625 C 68.6875 13.363281 68.796875 12.746094 68.566406 12.578125 C 68.378906 12.4375 67.027344 12.4375 66.570312 12.578125 Z M 67.917969 13.460938 C 67.894531 13.753906 67.148438 15.847656 66.917969 16.265625 C 66.433594 17.128906 65.277344 17.128906 65.277344 16.265625 C 65.277344 15.714844 65.761719 14.515625 66.1875 14.003906 C 66.546875 13.570312 67.332031 13.171875 67.734375 13.210938 C 67.902344 13.226562 67.933594 13.265625 67.917969 13.460938 Z M 67.917969 13.460938 "/>
<path style=" stroke:none;fill-rule:nonzero;fill:rgb(15.294118%,20.392157%,65.490196%);fill-opacity:0.835294;" d="M 40.101562 20.699219 L 35.828125 20.738281 L 35.398438 22.019531 C 35.167969 22.722656 34.976562 23.320312 34.976562 23.355469 C 34.976562 23.394531 35.058594 23.417969 35.144531 23.417969 C 35.296875 23.417969 35.3125 23.449219 35.269531 23.65625 L 35.222656 23.898438 L 47.8125 23.898438 L 48.023438 23.195312 C 48.144531 22.808594 48.375 22.195312 48.546875 21.828125 C 48.714844 21.460938 48.859375 21.125 48.859375 21.089844 C 48.859375 21.050781 48.769531 21.019531 48.660156 21.019531 C 48.484375 21.019531 48.46875 20.996094 48.539062 20.867188 C 48.582031 20.78125 48.621094 20.691406 48.621094 20.667969 C 48.621094 20.621094 48.121094 20.621094 40.101562 20.699219 Z M 47.746094 20.972656 C 47.746094 20.988281 47.667969 21.179688 47.582031 21.394531 C 47.484375 21.601562 47.3125 22.082031 47.183594 22.457031 L 46.96875 23.136719 L 41.339844 23.160156 L 35.707031 23.179688 L 35.890625 22.5625 C 36 22.21875 36.152344 21.738281 36.230469 21.5 L 36.382812 21.058594 L 38.117188 21.019531 C 40.339844 20.964844 47.746094 20.933594 47.746094 20.972656 Z M 47.746094 20.972656 "/>
</g>
</svg>
